
<svg xmlns="http://www.w3.org/2000/svg" version="1.1" xmlns:xlink="http://www.w3.org/1999/xlink" preserveAspectRatio="none" x="0px" y="0px" width="740px" height="740px" viewBox="0 0 740 740">
<defs>
<g id="Layer0_0_MEMBER_0_MEMBER_0_FILL">
<path  fill="red" stroke="none" d="
M 972.2 362.9
Q 987.2 347.9 987.2 326.65 987.2 305.4 972.2 290.4 957.2 275.4 935.95 275.4 914.7 275.4 899.7 290.4 884.7 305.4 884.7 326.65 884.7 347.9 899.7 362.9 914.7 377.9 935.95 377.9 957.2 377.9 972.2 362.9 Z"/>
</g>

<g id="Layer0_0_MEMBER_1_FILL">
<path  fill="#a8a9ad" stroke="none" d="
M 478.65 576.5
Q 470.9 568.8 457.15 568.8
L 434 568.8 434 622.55 457.15 622.55
Q 470.85 622.55 478.65 614.8 486 607.55 486 595.65 486 583.75 478.65 576.5
M 457.15 577.35
Q 466.05 577.35 470.85 582.3 475.5 587.2 475.5 595.65 475.5 604.1 470.85 608.95 466.05 613.9 457.15 613.9
L 444.15 613.9 444.15 577.35 457.15 577.35
M 402.85 568.8
L 391.25 568.8 368.2 622.55 379.05 622.55 384.65 608.8 409.15 608.8 414.75 622.55 425.9 622.55 402.85 568.8
M 406.25 600.9
L 387.35 600.9 397.05 577.1 406.25 600.9
M 596.5 576.5
Q 588.75 568.8 575 568.8
L 551.85 568.8 551.85 622.55 575 622.55
Q 588.7 622.55 596.5 614.8 603.85 607.55 603.85 595.65 603.85 583.75 596.5 576.5
M 575 577.35
Q 583.9 577.35 588.7 582.3 593.35 587.2 593.35 595.65 593.35 604.1 588.7 608.95 583.9 613.9 575 613.9
L 562 613.9 562 577.35 575 577.35
M 507.25 590.05
L 507.25 577.05 539.95 577.05 539.95 568.8 497.2 568.8 497.2 622.55 540.85 622.55 540.85 614.25 507.25 614.25 507.25 598.35 535.7 598.35 535.7 590.05 507.25 590.05
M 305.55 595.65
Q 305.6 607.2 313.3 615.2 320.85 623.2 334.65 623.5 348.35 623.2 355.95 615.2 363.6 607.2 363.65 595.65 363.65 584.05 355.95 576.15 347.8 567.85 334.65 567.85 321.45 567.85 313.3 576.15 305.55 584.05 305.55 595.65
M 321 609.3
Q 315.6 603.95 315.45 595.65 315.45 587.55 321 582.05 326.5 576.6 334.55 576.6 342.6 576.6 348.1 582.05 353.6 587.55 353.6 595.65 353.45 603.95 348.1 609.3 342.75 614.65 334.55 614.8 326.3 614.65 321 609.3
M 268.65 568.8
L 258.75 568.8 258.75 622.55 300.45 622.55 300.45 613.9 268.65 613.9 268.65 568.8
M 214.1 590.05
L 214.1 577.05 246.8 577.05 246.8 568.8 204.05 568.8 204.05 622.55 247.7 622.55 247.7 614.25 214.1 614.25 214.1 598.35 242.55 598.35 242.55 590.05 214.1 590.05
M 187.15 573.3
Q 181.7 568.8 172.05 568.8
L 145.85 568.8 145.85 622.55 155.9 622.55 155.9 601.95 169.5 601.95 182.7 622.55 193.9 622.55 179.2 600.45
Q 185.3 598.45 188.65 594.65 192.3 590.55 192.3 584.9 192.3 577.6 187.15 573.3
M 182.05 585.5
Q 182.05 589.4 179.3 591.75 176.6 594.05 171.95 594.05
L 155.9 594.05 155.9 577.05 171.8 577.05
Q 176.4 577.05 179.15 579.25 182.05 581.6 182.05 585.5
M 146.85 691.3
L 146.85 692.3
Q 177.8 692.1 204.35 687.45 215.9 685.4 232.95 681.25 249.95 685.5 262.05 687.55 289.6 692.3 322.15 692.3 354.6 692.3 382.25 687.55 394.05 685.5 411.15 681.35 427.95 685.5 439.45 687.45 466.55 692.15 498.15 692.3
L 498.15 691.35
Q 486.65 691 468.4 686.8 456.15 684.2 432.1 677.6
L 428.4 676.6 432.1 675.65
Q 456.15 668.95 468.4 666.35 486.65 662.2 498.15 661.9
L 498.15 660.85
Q 466.55 661 439.45 665.7 427.95 667.65 411.15 671.95 394.05 667.65 382.25 665.6 354.6 660.85 322.15 660.85 289.6 660.85 262.05 665.6 249.95 667.65 232.95 671.95 215.9 667.75 204.35 665.7 177.8 661.05 146.85 660.85
L 146.85 661.9
Q 158.15 662.35 175.95 666.35 187.85 668.95 211.85 675.65
L 215.5 676.6 211.85 677.6
Q 187.85 684.2 175.95 686.8 158.15 690.85 146.85 691.3
M 254.35 677.6
L 250.55 676.6 254.35 675.65
Q 278.05 668.95 290.45 666.25 310.5 661.75 322.15 661.75 333.8 661.75 353.8 666.25 365.85 668.95 389.85 675.65
L 393.55 676.6 389.85 677.6
Q 365.85 684.2 353.8 686.9 333.8 691.45 322.15 691.45 310.5 691.45 290.45 686.9 278.05 684.2 254.35 677.6
M 544.9 117.25
Q 544.3 116.65 543.7 116.05 535.15 117.4 526.1 117.4 483.05 117.4 452.65 87 436.7 71.05 429.1 51.55 412.7 47.7 395.35 46.15 383.2 45.05 370.6 45.05 358.05 45.05 345.9 46.15 328.75 47.7 312.55 51.45 304.95 71 288.95 87 258.55 117.4 215.55 117.4 206.3 117.4 197.6 116 196.95 116.6 196.3 117.25 144.65 168.95 129.95 235.95 149.6 262.35 149.6 296.95 149.6 329.8 131.85 355.25 147.8 417.3 196.3 465.85 201.95 471.45 207.85 476.7 211.6 476.45 215.55 476.45 258.55 476.45 288.95 506.85 298.35 516.3 304.9 526.95 305.9 528.6 306.85 530.25 337.1 538.05 370.6 538.05 404.35 538.05 434.85 530.15 435.75 528.55 436.75 526.95 443.25 516.3 452.65 506.85 483.05 476.45 526.1 476.45 529.75 476.45 533.4 476.7 539.25 471.45 544.9 465.85 592.95 417.8 609 356.6 590.35 330.65 590.35 296.95 590.35 261.5 611 234.65 596.1 168.45 544.9 117.25
M 529 157.9
Q 552.8 164.35 565.1 185.6 577.4 206.9 571.05 230.75 564.65 254.55 543.35 266.8 522.05 279.15 498.3 272.75 474.45 266.35 462.15 245.05 449.8 223.8 456.25 199.95 462.6 176.2 483.9 163.85 505.2 151.55 529 157.9
M 328.45 90
Q 345.85 72.55 370.45 72.55 395.1 72.55 412.5 90 429.9 107.4 429.9 132 429.9 156.6 412.5 174.05 395.1 191.45 370.45 191.45 345.85 191.45 328.45 174.05 311.05 156.6 311.05 132 311.05 107.4 328.45 90
M 336.65 291.6
L 328.15 267.15 353.55 262.25 370.5 242.7 387.45 262.25 412.85 267.15 404.35 291.6 412.85 316 387.45 320.9 370.5 340.45 353.55 320.9 328.15 316 336.65 291.6
M 449.55 394.45
Q 443.75 370.5 456.5 349.5 469.3 328.5 493.2 322.6 517.1 316.75 538.15 329.55 559.15 342.3 565 366.2 570.9 390.2 558.1 411.2 545.35 432.2 521.4 438.1 497.5 443.9 476.45 431.15 455.4 418.35 449.55 394.45
M 183.75 183.9
Q 196.55 162.9 220.45 157 244.35 151.2 265.4 163.95 286.45 176.75 292.25 200.65 298.15 224.6 285.4 245.6 272.6 266.6 248.65 272.5 224.75 278.35 203.75 265.55 182.7 252.8 176.85 228.9 171 204.9 183.75 183.9
M 179.9 359.5
Q 186.25 335.75 207.6 323.4 228.9 311.1 252.7 317.45 276.45 323.9 288.8 345.15 301.05 366.45 294.7 390.3 288.35 414.1 267 426.35 245.7 438.7 221.9 432.3 198.1 425.9 185.8 404.6 173.5 383.35 179.9 359.5
M 429.9 451.1
Q 429.9 475.7 412.5 493.15 395.1 510.55 370.45 510.55 345.85 510.55 328.45 493.15 311.05 475.7 311.05 451.1 311.05 426.5 328.45 409.1 345.85 391.65 370.45 391.65 395.1 391.65 412.5 409.1 429.9 426.5 429.9 451.1
M 395 436.45
L 395 418.9 346.05 418.9 346.05 433.8 350.05 433.8 350.05 470.4 346.05 470.4 346.05 485.4 395 485.4 395 467.75 379.95 467.75 379.95 470.4 368.3 470.4 368.3 459.6 371.05 459.6 371.05 462.25 385.95 462.25 385.95 442.05 371.05 442.05 371.05 444.65 368.3 444.65 368.3 433.8 379.95 433.8 379.95 436.45 395 436.45
M 233.15 343
L 206.9 343 206.9 357.9 210.9 357.9 210.9 394.5 206.9 394.5 206.9 409.5 233.15 409.5 233.15 394.5 229.15 394.5 229.15 391.3 232.3 388.1 238.75 394.5 236.9 394.5 236.9 409.5 268.55 409.5 268.55 394.5 263.5 394.5 244.95 375.95 263 357.9 268.55 357.9 268.55 343 236.9 343 236.9 357.9 238.65 357.9 229.15 367.35 229.15 357.9 233.15 357.9 233.15 343
M 218.2 181.6
L 207.6 192.2 207.6 211.85 218.2 222.5 237.8 222.5 239.85 224.65 239.85 231 237.8 233.1 228.05 233.1 225.9 231 225.9 224.7 207.6 224.7 207.6 237.5 218.2 248.1 247.5 248.1 258.15 237.5 258.15 218.15 247.5 207.55 228.05 207.55 225.9 205.35 225.9 198.65 228.05 196.5 237.8 196.5 239.85 198.65 239.85 205.3 258.15 205.3 258.15 192.2 247.5 181.6 218.2 181.6
M 482.7 348
L 482.7 362.9 486.7 362.9 486.7 399.5 482.7 399.5 482.7 414.5 531.65 414.5 531.65 396.85 516.6 396.85 516.6 399.5 504.95 399.5 504.95 388.7 507.7 388.7 507.7 391.35 522.6 391.35 522.6 371.15 507.7 371.15 507.7 373.75 504.95 373.75 504.95 362.9 516.6 362.9 516.6 365.55 531.65 365.55 531.65 348 482.7 348
M 356 277.1
Q 350 283.1 350 291.55 350 300.05 356 306.05 362 312 370.45 312 378.95 312 384.95 306.05 390.95 300.05 390.95 291.55 390.95 283.1 384.95 277.1 378.95 271.1 370.45 271.1 362 271.1 356 277.1
M 487.6 197.45
L 491.6 197.45 491.6 234.05 487.6 234.05 487.6 249.05 513.85 249.05 513.85 234.05 509.85 234.05 509.85 222.05 519 222.05 521.15 224.2 521.15 249.05 543.4 249.05 543.4 234.05 539.4 234.05 539.4 218.95 535 214.55 539.4 210.2 539.4 193.2 528.8 182.55 487.6 182.55 487.6 197.45
M 509.85 197.45
L 519 197.45 521.15 199.6 521.15 205 519 207.15 509.85 207.15 509.85 197.45 Z"/>

<path fill="#FFFFFF" stroke="none" d="
M 383.75 98.7
L 354.45 98.7 343.85 109.3 343.85 154.6 354.45 165.2 383.75 165.2 394.4 154.6 394.4 128.25 371.05 128.25 371.05 141.8 376.1 141.8 376.1 148.1 374.05 150.2 364.3 150.2 362.15 148.1 362.15 115.75 364.3 113.6 374.05 113.6 376.1 115.75 376.1 124.2 394.4 124.2 394.4 109.3 383.75 98.7 Z"/>
</g>

<g id="Layer0_0_MEMBER_2_MEMBER_0_MEMBER_0_FILL">
<path  fill="#a8a9ad" stroke="none" d="
M 312.8 541.2
L 287.45 541.2 287.45 575.6 312.8 575.6 312.8 541.2 Z"/>
</g>

<g id="Layer0_0_MEMBER_2_MEMBER_0_MEMBER_1_FILL">
<path  fill="#a8a9ad" stroke="none" d="
M 312.8 579.1
L 287.45 579.1 288.05 581.15
Q 288.45 583.55 287.45 585.35
L 312.8 585.35
Q 311.85 583.55 312.2 581.15
L 312.8 579.1 Z"/>
</g>

<g id="Layer0_0_MEMBER_2_MEMBER_0_MEMBER_2_FILL">
<path  fill="#a8a9ad" stroke="none" d="
M 637.45 839.6
Q 637.45 838.85 635.2 838.85 632.95 838.85 632.95 839.6
L 632.95 875
Q 632.95 875.75 635.2 875.75 637.45 875.75 637.45 875
L 637.45 839.6 Z"/>
</g>

<g id="Layer0_0_MEMBER_2_MEMBER_0_MEMBER_3_FILL">
<path  fill="red" stroke="none" d="
M 287.45 537.5
L 312.8 537.5
Q 312.45 532 310.65 526.5 307.1 515.45 300.15 515.45 293.2 515.45 289.6 526.5 287.85 532 287.45 537.5 Z"/>
</g>
</defs>

<g transform="matrix( 0.998046875, 0, 0, 0.998046875, -563.15,-193.75) ">
<use xlink:href="#Layer0_0_MEMBER_0_MEMBER_0_FILL"/>
</g>

<g transform="matrix( 1, 0, 0, 1, 0,0) ">
<use xlink:href="#Layer0_0_MEMBER_1_FILL"/>
</g>

<g transform="matrix( 0, 1.3528594970703125, -1.2890167236328125, 0, 1268.85,270.35) ">
<use xlink:href="#Layer0_0_MEMBER_2_MEMBER_0_MEMBER_0_FILL"/>
</g>

<g transform="matrix( 0, 1.3528594970703125, -1.2890167236328125, 0, 1268.85,270.35) ">
<use xlink:href="#Layer0_0_MEMBER_2_MEMBER_0_MEMBER_1_FILL"/>
</g>

<g transform="matrix( 0.9508514404296875, 0, 0, 0.9979095458984375, -95.35,-178.8) ">
<use xlink:href="#Layer0_0_MEMBER_2_MEMBER_0_MEMBER_2_FILL"/>
</g>

<g transform="matrix( 0, 1.3528594970703125, -1.2890167236328125, 0, 1268.85,270.35) ">
<use xlink:href="#Layer0_0_MEMBER_2_MEMBER_0_MEMBER_3_FILL"/>
</g>
</svg>
