<svg xmlns="http://www.w3.org/2000/svg" width="800px" height="800px" viewBox="0 0 192.756 192.756">
<path fill="#fff" d="M0 0h192.756v192.756H0z"/>
<path d="M128.539 86.828l1.129-2.13 4.246.02-1.173 2.113zM10.734 84.925l17.912.033-3.637 6.854v.025c.872.09 1.728-.016 2.567.017l3.752-6.895 4.188.041-9.182 17.262-4.287-.041 4.6-8.605c.025-.049-2.542-.082-2.542-.082l-4.641 8.688-4.443-.017 8.466-15.822v-.043l-13.346-.099a9.93 9.93 0 0 1 .593-1.316zM31.945 94.576c.716-1.292 1.423-2.592 2.23-3.851 1.127-1.53 2.781-2.156 4.656-1.876.667.132 1.333.23 1.835.749l.238-.428h3.711l-3.513 6.871c-.387.905-1.037 1.703-1.144 2.724.042.182.066.37.198.51.321.174.806.197 1.104-.032.551-.388.79-.972 1.152-1.466l4.402-8.588 4.122-.042c-.222.502-.576.979-.749 1.481 1.275-1.144 2.748-1.991 4.583-1.621l-1.892 3.752c-.165.14-.148.543-.395.461-1.119-.477-2.518-.214-3.423.526-.452.354-.839.839-1.144 1.309l-3.571 7.084h-4.13c.189-.443.485-.839.633-1.3h-.058c-1.127 1.013-2.551 2.081-4.089 1.324-.387-.329-.774-.675-.889-1.144h-.082c-.987.756-1.983 1.604-3.316 1.414-.889-.105-1.827-.519-2.213-1.414-.403-.814-.255-1.992.025-2.807.403-1.281 1.127-2.426 1.719-3.636z" fill="#4169e1"/>
<path d="M34.627 97.127l2.567-5.036c.214-.477.649-.823 1.069-1.144.42-.148.872-.058 1.201.214.189.288-.008.675-.058.988l-3.438 6.812c-.33.411-.765.633-1.284.633-.321-.016-.535-.319-.634-.592-.007-.715.388-1.25.577-1.875z" fill="#fff"/>
<path d="M51.231 97.776l6.813-13.329 3.851.016-7.01 14.201a.917.917 0 0 0 .066.79c.567.428 1.11-.156 1.596-.411l.552-.437c.058-.725.321-1.365.617-2l2.542-5.052c1.356-1.868 3.365-2.724 5.554-2.781 1.407.041 2.896.617 3.431 2.008.131 1.259-.519 2.238-.905 3.299-.378.741-.683 1.498-1.012 2.254l-.116.041-5.447-.024c-.024-.033-.065-.017-.099-.017-.387.725-.782 1.448-.831 2.312.024.502.419.93.864 1.144.748.263 1.58.024 2.312-.099 1.465-.535 3.11-1.014 4.032-2.494l4.188-8.096c1.267.066 2.493-.024 3.728 0l-4.559 9.167c-.148.328-.165.848.017 1.168.148.172.37.229.592.172.346-.146.642-.492.831-.789l4.92-9.733h3.727l-9.792 19.467c-1.233.033-2.55.033-3.809 0l3.356-6.688v-.025c-.568.206-1.193.412-1.859.438-.65.074-1.193-.133-1.596-.592-.437-.494-.634-1.104-.592-1.795-1.358 1.004-2.831 1.77-4.427 2.188-1.3.329-2.781.106-3.933-.337-.65-.297-1.209-.922-1.481-1.58-1.341 1.25-2.822 2.238-4.714 2.098-.749-.099-1.539-.748-1.736-1.48-.361-.979-.139-2.147.329-3.004z" fill="#4169e1"/>
<path d="M64.331 90.98c.354-.354.889-.601 1.398-.411.165.115.173.288.214.453a1.848 1.848 0 0 1-.074.378l-1.621 3.398h-1.835l1.918-3.818z" fill="#fff"/></svg>